<?xml version="1.0" standalone="no"?><!DOCTYPE svg PUBLIC "-//W3C//DTD SVG 1.1//EN" "http://www.w3.org/Graphics/SVG/1.1/DTD/svg11.dtd"><svg t="1732549841588" class="icon" viewBox="0 0 1024 1024" version="1.1" xmlns="http://www.w3.org/2000/svg" p-id="4363" xmlns:xlink="http://www.w3.org/1999/xlink" width="32" height="32"><path d="M646.7584 185.1392c-12.4928-3.8912-25.8048-4.5056-38.5024-1.6384-10.24-45.8752-50.176-78.4384-96.256-78.4384s-86.2208 32.5632-96.0512 78.4384c-12.6976-2.8672-26.2144-2.4576-38.7072 1.6384-38.0928 11.0592-62.2592 48.9472-56.7296 88.8832 5.5296 39.936 39.1168 69.4272 78.848 69.2224h3.4816c2.8672 11.4688 9.6256 21.7088 19.2512 28.4672 13.9264 10.6496 21.9136 27.4432 21.504 45.056v62.2592h136.6016v-62.2592c-0.4096-17.8176 7.5776-34.6112 21.7088-45.4656 9.4208-6.7584 16.1792-16.9984 19.0464-28.4672h3.6864c39.5264 0.2048 73.3184-29.4912 78.848-69.2224 5.5296-39.936-18.6368-77.824-56.7296-88.8832v0.4096z m0 0M851.968 482.5088c8.3968 0 15.36 6.9632 15.36 15.5648 0 4.096-1.6384 7.9872-4.5056 10.8544-2.8672 2.8672-6.7584 4.5056-10.8544 4.5056-8.6016 0-15.36-6.9632-15.36-15.5648 0-8.3968 6.9632-15.36 15.36-15.36zM211.1488 425.984c3.4816-2.048 7.9872-1.6384 11.0592 0.8192 3.072 2.6624 4.3008 6.9632 2.8672 10.8544-1.4336 3.8912-5.12 6.3488-9.216 6.3488-2.8672 1.6384-6.5536 1.6384-9.4208 0-3.6864-2.2528-5.5296-6.5536-4.5056-10.8544 1.2288-4.096 4.9152-6.9632 9.216-7.168z m152.7808-18.0224c4.9152 0 8.8064 4.096 8.8064 9.0112 0 2.4576-0.8192 4.7104-2.6624 6.3488-1.6384 1.6384-3.8912 2.6624-6.3488 2.6624-2.4576 0-4.7104-1.024-6.3488-2.6624-1.6384-1.6384-2.6624-3.8912-2.6624-6.3488 0.4096-4.9152 4.3008-9.0112 9.216-9.0112z m449.9456-44.4416c12.0832 0 21.9136 9.8304 22.1184 22.3232 0 9.0112-5.3248 17.2032-13.5168 20.6848-8.192 3.4816-17.8176 1.6384-23.9616-4.7104-6.3488-6.3488-8.192-15.9744-4.9152-24.3712 3.2768-8.3968 11.264-13.7216 20.2752-13.9264z m-557.4656-66.9696c14.7456 0 26.8288 12.0832 26.8288 27.2384 0 14.9504-12.0832 27.2384-26.8288 27.2384-7.168 0-13.9264-2.8672-19.0464-7.9872-5.12-5.12-7.7824-12.0832-7.7824-19.0464 0-15.36 12.0832-27.4432 26.8288-27.4432z m-111.8208-12.0832c6.3488-4.096 14.336-3.6864 20.2752 1.024 5.7344 4.7104 7.9872 12.4928 5.5296 19.456-2.4576 6.9632-9.216 11.6736-16.7936 11.4688a16.85504 16.85504 0 0 1-18.0224 0c-6.3488-4.096-9.4208-11.8784-7.3728-19.2512 2.048-7.3728 8.6016-12.4928 16.384-12.6976z m722.5344-26.8288c16.1792 0.2048 29.2864 13.5168 29.2864 29.9008 0 12.0832-7.168 22.9376-18.2272 27.648-11.0592 4.7104-23.7568 2.048-31.9488-6.5536-8.3968-8.6016-10.8544-21.504-6.3488-32.5632 4.5056-11.264 15.36-18.432 27.2384-18.432z m0 0" fill="#B8C6D5" p-id="4364"></path><path d="M379.6992 366.3872h264.6016c20.48 0 38.5024 12.9024 45.2608 32.1536L849.92 855.04c5.12 14.7456 2.8672 30.9248-6.144 43.6224-9.0112 12.6976-23.552 20.2752-39.1168 20.2752H219.3408c-15.5648 0-30.1056-7.5776-39.1168-20.2752-9.0112-12.6976-11.264-29.0816-6.144-43.6224l160.3584-456.4992c6.5536-19.456 24.7808-32.1536 45.2608-32.1536z m0 0" fill="#559AFF" p-id="4365"></path><path d="M644.3008 366.3872c20.48 0 38.5024 12.9024 45.2608 32.1536l27.8528 79.0528h-28.672c17.6128 29.4912 35.4304 54.8864 45.4656 56.32-5.7344 0-14.7456-1.024-24.1664-5.3248-30.72-13.9264-34.2016-48.3328-45.6704-48.3328-8.6016 0-13.9264 18.8416-19.2512 39.3216l-2.6624 10.24c-5.3248 20.2752-11.264 39.3216-21.0944 39.3216-21.504 0-24.1664-48.3328-45.6704-48.3328S543.3344 612.352 511.1808 612.352c-32.3584 0-35.0208-91.5456-51.2-91.5456-16.1792 0-16.1792 32.3584-32.3584 32.3584s-13.5168-64.512-32.3584-64.512c-18.8416 0-29.696 88.8832-53.8624 88.8832s-22.9376-55.5008-29.4912-88.8832l-0.4096-0.4096-5.9392-7.3728 28.672-81.7152c6.7584-19.2512 24.9856-32.1536 45.2608-32.1536h264.8064z m0 0" fill="#EEF5FE" p-id="4366"></path></svg>